{
	"asset":{
		"version":"2.0",
		"generator":"Houdini GLTF 2.0 Exporter"
	},
	"accessors":[
		{
			"bufferView":0,
			"componentType":5123,
			"count":3744,
			"type":"SCALAR",
			"min":[0
			],
			"max":[937
			]
		},
		{
			"bufferView":1,
			"componentType":5126,
			"count":938,
			"type":"VEC3",
			"min":[-0.708661437,-0.708661437,-0.065638639
			],
			"max":[0.708661437,0.708661437,0.065638639
			]
		},
		{
			"bufferView":2,
			"componentType":5126,
			"count":938,
			"type":"VEC3",
			"min":[-1,-1,-1
			],
			"max":[0.999761462,1,1
			]
		},
		{
			"bufferView":3,
			"componentType":5126,
			"count":938,
			"type":"VEC2",
			"min":[0.00440748828,0.00818246603
			],
			"max":[0.979913235,0.995241642
			]
		},
		{
			"bufferView":4,
			"componentType":5126,
			"count":938,
			"type":"VEC2",
			"min":[0.00440748828,0.00818246603
			],
			"max":[0.979913235,0.995241642
			]
		},
		{
			"bufferView":5,
			"componentType":5126,
			"count":938,
			"type":"VEC4",
			"min":[-1,-1,-0.3494201,1
			],
			"max":[1,1,0.34942016,1
			]
		},
		{
			"bufferView":6,
			"componentType":5126,
			"count":938,
			"type":"VEC2",
			"min":[0.00440748828,0.004758358
			],
			"max":[0.979913235,0.991817534
			]
		}
	],
	"buffers":[
		{
			"uri":"scene_data.bin",
			"byteLength":67520,
			"name":"main_buffer"
		}
	],
	"bufferViews":[
		{
			"buffer":0,
			"byteLength":7488,
			"target":34963
		},
		{
			"buffer":0,
			"byteOffset":7488,
			"byteLength":11256,
			"target":34962
		},
		{
			"buffer":0,
			"byteOffset":18744,
			"byteLength":11256,
			"target":34962
		},
		{
			"buffer":0,
			"byteOffset":30000,
			"byteLength":7504,
			"target":34962
		},
		{
			"buffer":0,
			"byteOffset":37504,
			"byteLength":7504,
			"target":34962
		},
		{
			"buffer":0,
			"byteOffset":45008,
			"byteLength":15008,
			"target":34962
		},
		{
			"buffer":0,
			"byteOffset":60016,
			"byteLength":7504,
			"target":34962
		}
	],
	"nodes":[
		{
			"children":[1
			],
			"name":"Root"
		},
		{
			"children":[2
			],
			"matrix":[1,0,0,0,0,0,-1,0,0,1,0,0,0,0,0,1
			],
			"name":"Sketchfab_model"
		},
		{
			"children":[3
			],
			"matrix":[1,0,0,0,0,0,1,0,0,-1,0,0,0,0,0,1
			],
			"name":"fcafba5419d54cb1807f12aabf54baff_fbx"
		},
		{
			"children":[4
			],
			"name":"RootNode"
		},
		{
			"children":[5
			],
			"matrix":[0.0107472558,-0.0229612887,0.00156066823,0,0.00150160235,-0.00101917423,-0.0253350828,0,0.0229652282,0.0108120525,0.00092619675,0,0,0,0,1
			],
			"name":"GoldCoinBlank"
		},
		{
			"name":"GoldCoinBlank_GoldCoinBlank_0",
			"mesh":0
		}
	],
	"meshes":[
		{
			"primitives":[
				{
					"attributes":{
						"TEXCOORD_2":6,
						"POSITION":1,
						"TANGENT":5,
						"TEXCOORD_1":4,
						"TEXCOORD_0":3,
						"NORMAL":2
					},
					"indices":0,
					"material":0
				}
			],
			"name":"GoldCoinBlank_GoldCoinBlank_0"
		}
	],
	"materials":[
		{
			"name":"GoldCoinBlank",
			"pbrMetallicRoughness":{
				"baseColorTexture":{
					"index":0
				},
				"metallicRoughnessTexture":{
					"index":1
				}
			},
			"normalTexture":{
				"index":2
			},
			"occlusionTexture":{
				"index":3
			},
			"emissiveFactor":[11.3800001,5.69000006,0
			]
		}
	],
	"scenes":[
		{
			"nodes":[0
			]
		}
	],
	"textures":[
		{
			"source":0
		},
		{
			"source":1
		},
		{
			"source":2
		},
		{
			"source":3
		}
	],
	"images":[
		{
			"uri":"GoldCoinBlank_baseColor.png",
			"mimeType":"image/png"
		},
		{
			"uri":"GoldCoinBlank_metallicRoughness.png",
			"mimeType":"image/png"
		},
		{
			"uri":"GoldCoinBlank_normal.png",
			"mimeType":"image/png"
		},
		{
			"uri":"GoldCoinBlank_metallicRoughness1.png",
			"mimeType":"image/png"
		}
	],
	"scene":0
}
