{
	"asset":{
		"version":"2.0",
		"generator":"Houdini GLTF 2.0 Exporter"
	},
	"accessors":[
		{
			"bufferView":0,
			"componentType":5123,
			"count":7314,
			"type":"SCALAR",
			"min":[0
			],
			"max":[1220
			]
		},
		{
			"bufferView":1,
			"componentType":5126,
			"count":1221,
			"type":"VEC3",
			"min":[-31.1315823,-59.1591835,-0.00953491032
			],
			"max":[31.1516438,32.7196121,158.39888
			]
		}
	],
	"buffers":[
		{
			"uri":"penis_data.bin",
			"byteLength":29280,
			"name":"main_buffer"
		}
	],
	"bufferViews":[
		{
			"buffer":0,
			"byteLength":14628,
			"target":34963
		},
		{
			"buffer":0,
			"byteOffset":14628,
			"byteLength":14652,
			"target":34962
		}
	],
	"nodes":[
		{
			"name":"obj1",
			"mesh":0
		}
	],
	"meshes":[
		{
			"primitives":[
				{
					"attributes":{
						"POSITION":1
					},
					"indices":0,
					"material":0
				}
			],
			"name":"polyfill1"
		}
	],
	"materials":[
		{
			"name":"principledshader1",
			"pbrMetallicRoughness":{
				"baseColorFactor":[0.435000002,0.209999993,0.209999993,1
				],
				"metallicFactor":0,
				"roughnessFactor":0.300000012
			}
		}
	],
	"scenes":[
		{
			"nodes":[0
			]
		}
	],
	"scene":0
}
