{
	"asset":{
		"version":"2.0",
		"generator":"Houdini GLTF 2.0 Exporter"
	},
	"accessors":[
		{
			"bufferView":0,
			"componentType":5123,
			"count":522,
			"type":"SCALAR",
			"min":[0
			],
			"max":[107
			]
		},
		{
			"bufferView":1,
			"componentType":5126,
			"count":108,
			"type":"VEC3",
			"min":[-5,-0.5,-5
			],
			"max":[5,0.5,5
			]
		}
	],
	"buffers":[
		{
			"uri":"box_data.bin",
			"byteLength":2340,
			"name":"main_buffer"
		}
	],
	"bufferViews":[
		{
			"buffer":0,
			"byteLength":1044,
			"target":34963
		},
		{
			"buffer":0,
			"byteOffset":1044,
			"byteLength":1296,
			"target":34962
		}
	],
	"extensionsUsed":["KHR_lights_punctual"
	],
	"extensionsRequired":["KHR_lights_punctual"
	],
	"extensions":{
		"KHR_lights_punctual":{
			"lights":[
				{
					"name":"arealight1",
					"type":"point"
				}
			]
		}
	},
	"nodes":[
		{
			"name":"box1",
			"mesh":0
		},
		{
			"matrix":[1,0,0,0,0,0.556742966,-0.830684781,0,0,0.830684781,0.556742966,0,-0.00558185577,0.857856035,0.960806489,1
			],
			"extensions":{
				"KHR_lights_punctual":{
					"light":0
				}
			},
			"name":"arealight1"
		}
	],
	"meshes":[
		{
			"primitives":[
				{
					"attributes":{
						"POSITION":1
					},
					"indices":0
				}
			],
			"name":"merge1"
		}
	],
	"scenes":[
		{
			"nodes":[0
			]
		}
	],
	"scene":0
}
