{
	"asset":{
		"version":"2.0",
		"generator":"Houdini GLTF 2.0 Exporter"
	},
	"accessors":[
		{
			"bufferView":0,
			"componentType":5121,
			"count":36,
			"type":"SCALAR",
			"min":[0
			],
			"max":[7
			]
		},
		{
			"bufferView":1,
			"componentType":5126,
			"count":8,
			"type":"VEC3",
			"min":[-0.5,-0.5,-0.5
			],
			"max":[0.5,0.5,0.5
			]
		},
		{
			"bufferView":2,
			"componentType":5123,
			"count":486,
			"type":"SCALAR",
			"min":[0
			],
			"max":[99
			]
		},
		{
			"bufferView":3,
			"componentType":5126,
			"count":100,
			"type":"VEC3",
			"min":[-5,0,-5
			],
			"max":[5,0,5
			]
		}
	],
	"buffers":[
		{
			"uri":"light_data.bin",
			"byteLength":2304,
			"name":"main_buffer"
		}
	],
	"bufferViews":[
		{
			"buffer":0,
			"byteLength":36,
			"target":34963
		},
		{
			"buffer":0,
			"byteOffset":36,
			"byteLength":96,
			"target":34962
		},
		{
			"buffer":0,
			"byteOffset":132,
			"byteLength":972,
			"target":34963
		},
		{
			"buffer":0,
			"byteOffset":1104,
			"byteLength":1200,
			"target":34962
		}
	],
	"extensionsUsed":["KHR_lights_punctual"
	],
	"extensionsRequired":["KHR_lights_punctual"
	],
	"extensions":{
		"KHR_lights_punctual":{
			"lights":[
				{
					"name":"arealight1",
					"type":"point"
				}
			]
		}
	},
	"nodes":[
		{
			"name":"box1",
			"mesh":0
		},
		{
			"matrix":[1,0,0,0,0,0.556742966,-0.830684781,0,0,0.830684781,0.556742966,0,-0.00558185577,0.857856035,0.960806489,1
			],
			"extensions":{
				"KHR_lights_punctual":{
					"light":0
				}
			},
			"name":"arealight1"
		}
	],
	"meshes":[
		{
			"primitives":[
				{
					"attributes":{
						"POSITION":1
					},
					"indices":0,
					"material":0
				},
				{
					"attributes":{
						"POSITION":3
					},
					"indices":2
				}
			],
			"name":"material1"
		}
	],
	"materials":[
		{
			"name":"principledshader1",
			"pbrMetallicRoughness":{
				"baseColorFactor":[1,0,0,1
				],
				"metallicFactor":0,
				"roughnessFactor":0.300000012
			}
		}
	],
	"scenes":[
		{
			"nodes":[0
			]
		}
	],
	"scene":0
}
