{
	"asset":{
		"version":"2.0",
		"generator":"Houdini GLTF 2.0 Exporter"
	},
	"accessors":[
		{
			"bufferView":0,
			"componentType":5123,
			"count":588,
			"type":"SCALAR",
			"min":[0
			],
			"max":[99
			]
		},
		{
			"bufferView":1,
			"componentType":5126,
			"count":100,
			"type":"VEC3",
			"min":[-0.5,-0.100000001,-0.499013364
			],
			"max":[0.5,0.100000001,0.499013364
			]
		}
	],
	"buffers":[
		{
			"uri":"test_data.bin",
			"byteLength":2376,
			"name":"main_buffer"
		}
	],
	"bufferViews":[
		{
			"buffer":0,
			"byteLength":1176,
			"target":34963
		},
		{
			"buffer":0,
			"byteOffset":1176,
			"byteLength":1200,
			"target":34962
		}
	],
	"nodes":[
		{
			"name":"tube1",
			"mesh":0
		}
	],
	"meshes":[
		{
			"primitives":[
				{
					"attributes":{
						"POSITION":1
					},
					"indices":0,
					"material":0
				}
			],
			"name":"material1"
		}
	],
	"materials":[
		{
			"name":"principledshader1",
			"pbrMetallicRoughness":{
				"baseColorFactor":[1,0,0,1
				],
				"metallicFactor":0,
				"roughnessFactor":0.300000012
			},
			"emissiveFactor":[100,50,0
			]
		}
	],
	"scenes":[
		{
			"nodes":[0
			]
		}
	],
	"scene":0
}
